<svg width="946" height="945" viewBox="0 0 946 945" fill="none" xmlns="http://www.w3.org/2000/svg">
<path d="M509.332 649.035C582.134 649.035 641.151 590.02 641.151 517.221C641.151 444.422 582.134 385.407 509.332 385.407C436.531 385.407 377.514 444.422 377.514 517.221C377.514 590.02 436.531 649.035 509.332 649.035Z" fill="#A0616A"/>
<path d="M467.59 411.77C467.59 411.77 529.106 428.246 560.962 434.837C592.818 441.428 589.522 422.754 589.522 422.754C589.522 422.754 631.265 428.246 629.068 423.852C626.871 419.459 646.644 396.391 623.576 370.029C600.507 343.666 607.098 323.894 607.098 323.894H587.325L581.833 316.204H551.075C551.075 316.204 517.07 286.386 456.653 295.174C396.236 303.962 324.786 327.189 318.195 363.438C317.301 368.354 316.124 373.817 314.758 379.586C298.237 449.331 333.34 514.588 369.747 576.328C378.695 591.502 421.975 624.588 420.868 601.888C419.761 579.187 381.908 528.205 408.272 524.91C434.635 521.615 479.673 454.609 467.59 411.77Z" fill="#2F2E41"/>
<path d="M434.851 943.292C409.404 941.256 384.169 937.11 359.408 930.897L360.796 904.611L372.5 696L374.796 694H604.645L641.086 886.445L646 912.411C636.384 916.151 626.658 919.677 616.724 922.776C616.614 922.776 616.614 922.883 616.51 922.883C602.725 927.156 588.726 930.897 574.617 933.995C555.859 938.041 536.876 940.967 517.77 942.757C503 944.223 488.164 944.936 473.321 944.894C460.496 944.895 447.566 944.361 434.851 943.292Z" fill="#E5E5E5"/>
<path d="M285.271 906.167C275.655 902 266.357 897.512 257.169 892.81L253.214 890.78C250.542 889.391 247.766 887.895 245.095 886.399C241.458 884.369 237.931 882.339 234.514 880.309C231.2 878.385 227.783 876.355 224.469 874.325C224.256 874.218 224.151 874.111 223.938 874.111C212.396 866.738 201.068 859.151 190.169 850.924C188.353 849.534 186.536 848.145 184.716 846.756L182.796 815.982L185.572 814.272L372.042 695.663L374.604 694.06L374.818 693.954L401.104 694.06V791.94C415.959 813.417 426.003 858.403 432.202 917.28C433.058 925.722 433.804 934.377 434.555 943.352C409.108 941.316 383.873 937.17 359.112 930.957C356.441 930.423 353.874 929.782 351.202 929.034C335.63 924.959 320.291 920.036 305.255 914.288C300.659 912.578 296.171 910.762 291.684 908.945L291.256 908.731C289.331 907.877 287.197 907.022 285.271 906.167Z" fill="#9E9E9E"/>
<path d="M245.095 886.399C241.458 884.369 237.931 882.339 234.513 880.309C231.2 878.385 227.783 876.355 224.469 874.325C224.255 874.218 224.151 874.111 223.937 874.111C212.396 866.738 201.068 859.151 190.169 850.924C188.353 849.534 186.536 848.145 184.716 846.756C183.866 846.008 183.01 845.368 182.045 844.619C175.209 839.384 168.583 833.934 162.171 828.164C161.852 827.95 161.638 827.629 161.315 827.416C167.79 822.437 175.05 818.573 182.796 815.982L190.383 818.227L244.453 834.468L244.772 856.373L245.095 886.399Z" fill="#9E9E9E"/>
<path d="M700.417 886.719C697.208 888.429 694.004 890.139 690.8 891.741C690.049 892.169 689.413 892.49 688.771 892.81C684.492 894.948 680.329 897.084 676.055 899.114C675.946 899.221 675.732 899.221 675.732 899.328C675.518 899.435 675.2 899.542 674.986 899.649C665.37 904.244 655.644 908.518 645.704 912.471C636.088 916.212 626.362 919.738 616.428 922.836C616.318 922.836 616.318 922.943 616.214 922.943C602.428 927.217 588.43 930.957 574.321 934.056C574.163 925.278 575.317 916.527 577.744 908.09L577.848 906.594L587.042 757.853L574.749 694.06L610.015 688.824L803.962 793.222C803.962 793.222 782.59 814.593 694.86 860.113C687.103 864.138 698.491 877.53 700.417 886.719Z" fill="#9E9E9E"/>
<path d="M515.126 917.173C501.231 918.455 487.128 919.097 473.024 919.097C459.344 919.097 445.773 918.562 432.202 917.28C433.057 925.722 433.803 934.377 434.555 943.352C447.27 944.421 460.199 944.955 473.024 944.955C487.868 944.997 502.704 944.284 517.474 942.818C536.58 941.028 555.563 938.102 574.321 934.056C574.163 925.279 575.316 916.527 577.744 908.09L577.848 906.594C557.22 911.615 536.259 915.15 515.126 917.173ZM918.939 317.506C896.358 252.644 859.9 193.488 812.108 144.163C764.315 94.8384 706.339 56.5317 642.22 31.9144C578.102 7.29703 509.385 -3.03841 440.861 1.62878C372.338 6.29596 305.657 25.8534 245.469 58.9374C185.281 92.0213 133.034 137.836 92.3717 193.185C51.7092 248.535 23.6097 312.088 10.033 379.412C-3.54378 446.737 -2.27111 516.212 13.7622 582.994C29.7954 649.777 60.2032 712.258 102.866 766.081C107.139 771.424 111.522 776.767 116.009 781.895C116.437 782.323 116.651 782.644 116.969 782.964C128.001 795.687 139.739 807.78 152.126 819.187C155.121 821.966 158.215 824.744 161.315 827.416C161.638 827.629 161.852 827.95 162.17 828.164C168.583 833.933 175.209 839.383 182.044 844.619C183.01 845.367 183.865 846.008 184.716 846.756C186.537 848.145 188.354 849.534 190.168 850.923C201.068 859.151 212.396 866.738 223.937 874.111C224.151 874.111 224.255 874.218 224.469 874.324C227.783 876.355 231.2 878.384 234.513 880.308C237.936 882.338 241.463 884.369 245.095 886.398C247.766 887.895 250.542 889.391 253.213 890.78L257.168 892.81C266.357 897.512 275.654 901.999 285.271 906.167C287.196 907.022 289.33 907.876 291.255 908.731L291.683 908.945C296.17 910.761 300.658 912.578 305.254 914.288C320.29 920.036 335.629 924.959 351.201 929.034C353.873 929.782 356.44 930.423 359.112 930.957C383.873 937.17 409.107 941.316 434.554 943.352C447.269 944.421 460.199 944.955 473.024 944.955C487.867 944.997 502.703 944.284 517.474 942.818C536.58 941.028 555.562 938.102 574.32 934.056C588.429 930.957 602.428 927.217 616.213 922.943C616.317 922.943 616.318 922.836 616.427 922.836C626.362 919.738 636.087 916.211 645.704 912.471C655.643 908.518 665.369 904.244 674.985 899.649C675.199 899.542 675.517 899.435 675.731 899.328C675.731 899.221 675.945 899.222 676.055 899.115C680.328 897.084 684.492 894.947 688.77 892.81C689.412 892.49 690.049 892.169 690.8 891.742C694.004 890.139 697.207 888.429 700.416 886.72C700.63 886.613 700.734 886.506 700.948 886.399C709.39 881.698 717.728 876.782 725.957 871.546C728.2 870.157 730.444 868.768 732.688 867.165C736.001 865.135 739.204 862.891 742.304 860.647C746.473 857.762 750.636 854.77 754.701 851.671C756.051 850.804 757.337 849.84 758.546 848.787C768.486 841.307 778.102 833.399 787.29 825.064C856.979 762.971 906.684 681.604 930.118 591.257C953.552 500.909 949.661 405.642 918.938 317.506L918.939 317.506ZM779.277 797.496C767.71 808.379 755.583 818.651 742.946 828.27C740.17 830.407 737.28 832.544 734.4 834.468C731.619 836.605 728.843 838.635 725.958 840.558C723.5 842.268 721.043 843.978 718.475 845.581C718.261 845.794 717.943 845.901 717.729 846.115C715.908 847.397 713.988 848.573 712.173 849.748C706.506 853.274 700.631 856.801 694.86 860.113C693.472 860.861 692.189 861.715 690.801 862.463C690.05 862.891 689.303 863.318 688.448 863.746C685.244 865.563 682.035 867.165 678.831 868.875C678.404 869.195 677.871 869.302 677.443 869.623C677.282 869.648 677.133 869.723 677.016 869.836C674.772 871.012 672.528 872.08 670.285 873.149C668.36 874.111 666.544 875.072 664.619 875.927C656.818 879.667 648.804 883.193 640.789 886.505C632.347 889.925 623.8 893.024 615.144 895.909C613.005 896.657 610.761 897.512 608.518 898.153C598.364 901.358 588.216 904.244 577.848 906.594C557.221 911.614 536.26 915.15 515.126 917.173C501.232 918.455 487.128 919.096 473.025 919.096C459.344 919.096 445.773 918.562 432.202 917.28C407.994 915.065 384.011 910.848 360.5 904.671C359.645 904.457 358.685 904.243 357.829 904.03C338.544 899.002 319.65 892.573 301.3 884.796C300.34 884.369 299.271 884.048 298.415 883.621C297.346 883.193 296.385 882.873 295.53 882.445C294.46 882.018 293.5 881.59 292.54 881.162C284.525 877.637 276.725 873.79 268.925 869.836L265.288 867.913C258.343 864.28 251.503 860.54 244.772 856.372C242.424 855.09 239.967 853.595 237.613 852.098C234.942 850.495 232.271 848.786 229.703 847.076C229.067 846.649 228.427 846.222 227.783 845.794C221.798 841.733 215.71 837.673 209.939 833.292C205.88 830.3 201.924 827.415 197.969 824.316C195.402 822.393 192.841 820.363 190.383 818.226C188.781 817.05 187.179 815.661 185.572 814.272C183.438 812.456 181.299 810.639 179.165 808.716C175.852 806.044 172.752 803.052 169.757 800.274C157.725 789.186 146.344 777.413 135.67 765.012C132.039 760.951 128.616 756.891 125.308 752.617C124.536 751.775 123.822 750.883 123.169 749.946C69.3715 682.036 36.5026 599.937 28.5718 513.665C20.6411 427.394 37.9914 340.679 78.5058 264.1C119.02 187.52 180.948 124.387 256.733 82.4028C332.518 40.4181 418.884 21.3966 505.296 27.6592C591.708 33.9217 674.429 65.1976 743.368 117.671C812.307 170.144 864.483 241.546 893.532 323.167C922.58 404.788 927.245 493.098 906.957 577.325C886.668 661.551 842.305 738.053 779.277 797.496L779.277 797.496Z" fill="#F1A527"/>
</svg>
